<?xml version="1.0" encoding="UTF-8"?><svg id="Layer_1" xmlns="http://www.w3.org/2000/svg" viewBox="0 0 48 48"><defs><style>.cls-1{fill:#fff;}</style></defs><path class="cls-1" d="M36.03,12.88c-2.79-2.46-7.21-2.88-7.4-2.89-.29-.03-.57,.15-.69,.45-.01,.02-.11,.26-.21,.64,1.85,.34,4.12,1.03,6.17,2.43,.33,.22,.43,.7,.23,1.06-.13,.24-.36,.37-.6,.37-.13,0-.25-.04-.37-.12-3.53-2.4-7.94-2.52-8.79-2.52s-5.26,.12-8.79,2.52c-.33,.23-.76,.11-.96-.25-.21-.36-.1-.83,.22-1.06,2.05-1.39,4.32-2.08,6.17-2.42-.11-.38-.2-.62-.21-.64-.12-.3-.4-.48-.7-.45-.19,.02-4.61,.43-7.44,2.93-1.48,1.5-4.43,10.26-4.43,17.83,0,.14,.03,.26,.09,.38,2.04,3.93,7.61,4.95,8.87,5h.02c.22,0,.44-.12,.57-.32l1.28-1.93c-3.46-.98-5.23-2.64-5.33-2.74-.29-.28-.32-.77-.06-1.08,.25-.32,.7-.35,.99-.07,.04,.04,3.3,3.07,9.7,3.07s9.67-3.04,9.7-3.07c.29-.28,.73-.25,.99,.07,.25,.32,.23,.8-.06,1.08-.1,.1-1.87,1.76-5.33,2.74l1.28,1.93c.13,.2,.34,.32,.57,.32h.02c1.27-.05,6.84-1.07,8.87-5,.06-.12,.09-.25,.09-.38,0-7.57-2.96-16.33-4.47-17.86h0Zm-16.22,14.78c-1.36,0-2.46-1.38-2.46-3.08s1.1-3.08,2.46-3.08,2.46,1.38,2.46,3.08-1.1,3.08-2.46,3.08Zm9.12,0c-1.36,0-2.46-1.38-2.46-3.08s1.1-3.08,2.46-3.08,2.46,1.38,2.46,3.08-1.1,3.08-2.46,3.08Z"/></svg>