<?xml version="1.0" encoding="UTF-8"?><svg id="Layer_1" xmlns="http://www.w3.org/2000/svg" viewBox="0 0 48 48"><defs><style>.cls-1{fill:#fff;}</style></defs><g id="insta"><path class="cls-1" d="M19.36,8.95c-4.5,0-8.16,3.67-8.16,8.17v11.67c0,4.5,3.67,8.16,8.17,8.16h11.67c4.5,0,8.16-3.67,8.16-8.17v-11.67c0-4.5-3.67-8.16-8.17-8.16h-11.67Zm14,4.67c.64,0,1.17,.52,1.17,1.17s-.52,1.17-1.17,1.17-1.17-.52-1.17-1.17,.52-1.17,1.17-1.17Zm-8.17,2.33c3.86,0,7,3.14,7,7s-3.14,7-7,7-7-3.14-7-7,3.14-7,7-7Zm0,2.33c-2.58,0-4.67,2.09-4.67,4.67s2.09,4.67,4.67,4.67,4.67-2.09,4.67-4.67-2.09-4.67-4.67-4.67Z"/></g></svg>