<?xml version="1.0" encoding="UTF-8"?><svg id="Layer_1" xmlns="http://www.w3.org/2000/svg" viewBox="0 0 48 48"><defs><style>.cls-1{fill:#fff;}</style></defs><g id="twitter"><path class="cls-1" d="M41.83,9.45c-1.32,.78-3.96,1.85-5.51,2.15-.05,.01-.08,.03-.13,.04-1.37-1.35-3.25-2.19-5.33-2.19-4.19,0-7.59,3.4-7.59,7.59,0,.22-.02,.63,0,.84-5.66,0-9.96-2.96-13.05-6.75-.34,.84-.48,2.18-.48,3.43,0,2.36,1.85,4.69,4.72,6.13-.53,.14-1.11,.23-1.72,.23-.98,0-2.02-.26-2.97-1.04v.09c0,3.3,3.51,5.55,6.62,6.18-.63,.37-1.91,.41-2.53,.41-.44,0-1.99-.2-2.41-.28,.87,2.71,4,4.23,6.98,4.28-2.33,1.83-3.95,2.51-8.73,2.51h-1.63c3.02,1.93,6.86,3.38,10.71,3.38,12.54,0,19.66-9.56,19.66-18.56,0-.15,0-.45,0-.75,0-.03,0-.06,0-.09,0-.05-.01-.09-.01-.13,0-.23-.01-.44-.02-.56,1.33-.96,2.49-2.16,3.4-3.53-1.22,.54-2.54,.91-3.91,1.07,1.41-.84,3.41-2.86,3.91-4.45Z"/></g></svg>