<?xml version="1.0" encoding="UTF-8"?><svg id="Layer_1" xmlns="http://www.w3.org/2000/svg" viewBox="0 0 48 48"><defs><style>.cls-1{fill:#fff;}</style></defs><g id="youtube"><path class="cls-1" d="M24.51,9.27c-5.2,0-11.96,1.3-11.96,1.3l-.02,.02c-2.37,.38-4.19,2.42-4.19,4.89v7.46h0v7.46h0c0,2.45,1.78,4.52,4.2,4.9h0s6.75,1.31,11.96,1.31,11.96-1.31,11.96-1.31h0c2.42-.38,4.2-2.46,4.2-4.91h0v-7.46h0v-7.46c0-2.44-1.78-4.52-4.2-4.9h0s-6.75-1.31-11.96-1.31Zm-3.73,7.95l9.95,5.72-9.95,5.72v-11.44Z"/></g></svg>