<?xml version="1.0" encoding="UTF-8"?><svg id="Layer_1" xmlns="http://www.w3.org/2000/svg" viewBox="0 0 181.31 38.78"><defs><style>.cls-1{font-family:GeneralSans-Medium, 'General Sans';font-size:25.7px;font-weight:500;}.cls-1,.cls-2{fill:#fff;}.cls-3{letter-spacing:0em;}.cls-4{letter-spacing:0em;}.cls-5{letter-spacing:.03em;}.cls-6{letter-spacing:0em;}.cls-7{letter-spacing:-.05em;}.cls-8{letter-spacing:-.02em;}</style></defs><path class="cls-2" d="M27.46,21.33v-3.87h-4.17L28.49,2.58l-3.66-1.28-4.47,12.79L15.89,1.3l-.49-1.3h-2.75L7.95,13.46,3.7,1.3,.04,2.58l5.2,14.88H.63v3.87H5.2L0,36.2l3.66,1.28,4.29-12.28,4.74,13.57h3.15l4.52-12.94,4.07,11.65,3.66-1.28-5.2-14.88h4.57ZM14.05,7.75l3.39,9.7h-6.78l3.39-9.7Zm.22,23.79l-3.57-10.21h7.14l-3.57,10.21Z"/><text class="cls-1" transform="translate(36.41 28.63)"><tspan class="cls-7" x="0" y="0">W</tspan><tspan class="cls-8" x="23.16" y="0">e</tspan><tspan class="cls-3" x="37.35" y="0">.Mi</tspan><tspan class="cls-6" x="73.54" y="0">n</tspan><tspan class="cls-4" x="88.35" y="0">t.</tspan><tspan x="105.83" y="0">A</tspan><tspan class="cls-5" x="124.08" y="0">r</tspan><tspan x="134.61" y="0">t</tspan></text></svg>