<?xml version="1.0" encoding="utf-8"?>
<!-- Generator: Adobe Illustrator 27.0.0, SVG Export Plug-In . SVG Version: 6.00 Build 0)  -->
<svg version="1.1" id="Layer_1" xmlns="http://www.w3.org/2000/svg" xmlns:xlink="http://www.w3.org/1999/xlink" x="0px" y="0px"
	 viewBox="0 0 143.6 18.7" style="enable-background:new 0 0 143.6 18.7;" xml:space="preserve">
<style type="text/css">
	.st0{enable-background:new    ;}
	.st1{fill:#FFFFFF;}
</style>
<g class="st0">
	<path class="st1" d="M11.6,4L7.7,18.5H4.8L0,0.1h2.8l3.5,14.2l3.9-14.2h2.9l3.8,14.2l3.5-14.2h2.8l-4.8,18.4h-2.9L11.6,4z"/>
</g>
<g class="st0">
	<path class="st1" d="M23.4,11.5c0-4,2.7-7,6.5-7c4.1,0,6.8,3.3,6.3,7.7H26c0.2,2.8,1.6,4.4,3.9,4.4c1.9,0,3.3-1.1,3.7-2.8h2.6
		c-0.7,3-3,4.9-6.2,4.9C26,18.7,23.4,15.8,23.4,11.5z M26.1,10.5h7.4c-0.1-2.5-1.5-4-3.6-4S26.3,8,26.1,10.5z"/>
</g>
<g class="st0">
	<path class="st1" d="M40.1,18.6c-1.2,0-2-0.8-2-2s0.8-2,2-2s2,0.8,2,2C42.1,17.7,41.3,18.6,40.1,18.6z"/>
	<path class="st1" d="M48,4.3v14.1h-2.6V0h3.5l6.2,15l6.2-15h3.5v18.4h-2.6V4.3l-5.9,14.1h-2.4L48,4.3z"/>
	<path class="st1" d="M69.8,3.4c-1.1,0-1.9-0.7-1.9-1.7S68.7,0,69.8,0c1.1,0,1.9,0.7,1.9,1.7C71.7,2.6,70.9,3.4,69.8,3.4z
		 M68.6,18.4V4.8h2.6v13.6H68.6z"/>
</g>
<g class="st0">
	<path class="st1" d="M77.3,18.4h-2.6V4.8h2.4v2.3c0.9-1.5,2.5-2.5,4.3-2.5c2.8,0,4.7,1.8,4.7,5.1v8.8h-2.6v-7.9c0-2.3-1-3.6-3-3.6
		c-1.8,0-3.3,1.5-3.3,3.9L77.3,18.4L77.3,18.4z"/>
</g>
<g class="st0">
	<path class="st1" d="M97.2,18.2c-0.8,0.4-1.5,0.5-2.3,0.5c-2.5,0-4.3-1.4-4.3-4.4V7h-3V4.8h3v-4h2.6v4h4.1V7h-4.1v6.7
		c0,1.9,0.9,2.5,2.3,2.5c0.6,0,1.2-0.1,1.7-0.4V18.2z"/>
	<path class="st1" d="M101.6,18.6c-1.2,0-2-0.8-2-2s0.8-2,2-2s2,0.8,2,2C103.6,17.7,102.8,18.6,101.6,18.6z"/>
</g>
<g class="st0">
	<path class="st1" d="M118.3,13.9h-8l-1.7,4.6h-2.9l7.1-18.4h3.1l7,18.4h-3L118.3,13.9z M111.2,11.6h6.3l-3.1-8.5L111.2,11.6z"/>
</g>
<g class="st0">
	<path class="st1" d="M127.9,18.4h-2.6V4.8h2.4v2.9c1-1.9,3-3.1,5.2-3.1v2.7c-2.9-0.2-5.1,1.1-5.1,4.1v7H127.9z"/>
</g>
<g class="st0">
	<path class="st1" d="M143.5,18.2c-0.8,0.4-1.5,0.5-2.3,0.5c-2.5,0-4.3-1.4-4.3-4.4V7h-3V4.8h3v-4h2.6v4h4.1V7h-4.1v6.7
		c0,1.9,0.9,2.5,2.3,2.5c0.6,0,1.2-0.1,1.7-0.4V18.2z"/>
</g>
</svg>
