<?xml version="1.0" encoding="utf-8"?>
<!-- Generator: Adobe Illustrator 27.0.0, SVG Export Plug-In . SVG Version: 6.00 Build 0)  -->
<svg version="1.1" id="Layer_1" xmlns="http://www.w3.org/2000/svg" xmlns:xlink="http://www.w3.org/1999/xlink" x="0px" y="0px"
	 viewBox="0 0 895.7 129" style="enable-background:new 0 0 895.7 129;" xml:space="preserve">
<style type="text/css">
	.st0{fill:#FFFFFF;}
</style>
<g>
	<path class="st0" d="M80.1,27.7l-27,99.5h-20L0,0.3h19.1l24.4,97.8L70.2,0.3h20.2l26.3,97.9l24.4-97.9h19.1l-33.1,126.9h-20.2
		L80.1,27.7z"/>
	<path class="st0" d="M161.4,79.8c0-27.8,18.9-48.1,44.7-48.1c27.9,0,46.5,22.6,43.3,53h-69.8c1.4,19.1,11,30.2,26.7,30.2
		c13.3,0,22.5-7.2,25.5-19.4h17.7c-4.6,20.9-20.7,33.4-42.8,33.4C179.6,129,161.4,109.4,161.4,79.8z M179.8,72.9h50.7
		c-0.9-17.3-10.3-27.8-24.7-27.8C191.5,45.2,181.8,55.4,179.8,72.9z"/>
	<path class="st0" d="M287.6,30.2v97h-17.9V0.3h23.9l42.6,103.1L378.7,0.3h24v126.9h-18V30l-40.3,97.2h-16.6L287.6,30.2z"/>
	<path class="st0" d="M437.5,23.6c-7.6,0-13.1-5.1-13.1-11.8c0-6.9,5.5-11.8,13.1-11.8s12.9,4.9,12.9,11.8
		C450.5,18.5,445.1,23.6,437.5,23.6z M428.7,127.2V33.5h17.9v93.7H428.7z"/>
	<path class="st0" d="M489.2,127.2h-17.9V33.5h16.6v15.6c6.4-10.4,17-17.3,29.9-17.3c19.3,0,32,12.4,32,34.8v60.6h-17.9V72.6
		c0-16.1-7.1-25.1-20.3-25.1c-12.2,0-22.5,10.3-22.5,26.9v52.8H489.2z"/>
	<path class="st0" d="M626,125.6c-5.5,2.5-10.3,3.4-15.9,3.4c-17.3,0-29.3-9.4-29.3-30.1V48.7h-20.7V33.5h20.7V5.8h17.9v27.8H627
		v15.2h-28.3v46.1c0,12.9,6.2,17.5,15.7,17.5c4.2,0,8-0.7,11.7-2.5v15.7H626z"/>
	<path class="st0" d="M721.1,95.8h-54.8l-11.7,31.5H635l48.6-127H705l48.3,126.9h-20.7L721.1,95.8z M672.1,80h43.1l-21.4-58.5
		L672.1,80z"/>
	<path class="st0" d="M787.2,127.2h-17.9V33.5h16.6v19.8c6.5-12.9,20.7-21,36.1-21v18.6c-20.2-1.1-34.8,7.8-34.8,28.5L787.2,127.2
		L787.2,127.2z"/>
	<path class="st0" d="M894.7,125.6c-5.5,2.5-10.3,3.4-15.9,3.4c-17.3,0-29.3-9.4-29.3-30.1V48.7h-20.7V33.5h20.7V5.8h17.9v27.8h28.3
		v15.2h-28.3v46.1c0,12.9,6.2,17.5,15.7,17.5c4.2,0,8-0.7,11.7-2.5L894.7,125.6L894.7,125.6z"/>
</g>
</svg>
