<?xml version="1.0" encoding="utf-8"?>
<!-- Generator: Adobe Illustrator 27.0.0, SVG Export Plug-In . SVG Version: 6.00 Build 0)  -->
<svg version="1.1" id="Layer_1" xmlns="http://www.w3.org/2000/svg" xmlns:xlink="http://www.w3.org/1999/xlink" x="0px" y="0px"
	 viewBox="0 0 1149.5 266.7" style="enable-background:new 0 0 1149.5 266.7;" xml:space="preserve">
<style type="text/css">
	.st0{fill:#FF6E30;}
	.st1{fill:#FFFFFF;}
</style>
<path class="st0" d="M188.8,146.7V120h-28.7l35.8-102.3l-25.2-8.8l-30.7,88l-30.7-88L105.9,0H87L54.7,92.6L25.4,8.9L0.3,17.7L36,120
	H4.3v26.6h31.4L0,249l25.2,8.8l29.5-84.4l32.6,93.4H109l31.1-89l28,80.1l25.2-8.8l-35.7-102.3L188.8,146.7L188.8,146.7z M96.6,53.3
	l23.3,66.7H73.3L96.6,53.3z M98.1,216.9l-24.5-70.2h49.1L98.1,216.9z"/>
<g>
	<path class="st1" d="M334,97.4l-27,99.5h-20L253.9,70H273l24.4,97.8L324.1,70h20.2l26.3,97.9L395,70h19.1L381,196.9h-20.2L334,97.4
		z"/>
	<path class="st1" d="M415.3,149.5c0-27.8,18.9-48.1,44.7-48.1c27.9,0,46.5,22.6,43.3,53h-69.8c1.4,19.1,11,30.2,26.7,30.2
		c13.3,0,22.5-7.2,25.5-19.4h17.7c-4.6,20.9-20.7,33.4-42.8,33.4C433.5,198.7,415.3,179.1,415.3,149.5z M433.7,142.6h50.7
		c-0.9-17.3-10.3-27.8-24.7-27.8C445.4,114.9,435.7,125.1,433.7,142.6z"/>
	<path class="st1" d="M541.5,99.9v97h-17.9V70h23.9l42.6,103.1L632.6,70h24v126.9h-18V99.7l-40.3,97.2h-16.6L541.5,99.9z"/>
	<path class="st1" d="M691.4,93.3c-7.6,0-13.1-5.1-13.1-11.8c0-6.9,5.5-11.8,13.1-11.8s12.9,4.9,12.9,11.8
		C704.4,88.2,699,93.3,691.4,93.3z M682.6,196.9v-93.7h17.9v93.7H682.6z"/>
	<path class="st1" d="M743.1,196.9h-17.9v-93.7h16.6v15.6c6.4-10.4,17-17.3,29.9-17.3c19.3,0,32,12.4,32,34.8v60.6h-17.9v-54.6
		c0-16.1-7.1-25.1-20.3-25.1c-12.2,0-22.5,10.3-22.5,26.9v52.8H743.1z"/>
	<path class="st1" d="M879.9,195.3c-5.5,2.5-10.3,3.4-15.9,3.4c-17.3,0-29.3-9.4-29.3-30.1v-50.2H814v-15.2h20.7V75.5h17.9v27.8
		h28.3v15.2h-28.3v46.1c0,12.9,6.2,17.5,15.7,17.5c4.2,0,8-0.7,11.7-2.5v15.7H879.9z"/>
	<path class="st1" d="M975,165.5h-54.8L908.5,197h-19.6l48.6-127h21.4l48.3,126.9h-20.7L975,165.5z M926,149.7h43.1l-21.4-58.5
		L926,149.7z"/>
	<path class="st1" d="M1041.1,196.9h-17.9v-93.7h16.6V123c6.5-12.9,20.7-21,36.1-21v18.6c-20.2-1.1-34.8,7.8-34.8,28.5L1041.1,196.9
		L1041.1,196.9z"/>
	<path class="st1" d="M1148.6,195.3c-5.5,2.5-10.3,3.4-15.9,3.4c-17.3,0-29.3-9.4-29.3-30.1v-50.2h-20.7v-15.2h20.7V75.5h17.9v27.8
		h28.3v15.2h-28.3v46.1c0,12.9,6.2,17.5,15.7,17.5c4.2,0,8-0.7,11.7-2.5L1148.6,195.3L1148.6,195.3z"/>
</g>
</svg>
